<?xml version="1.0" encoding="UTF-8"?>
<svg xmlns="http://www.w3.org/2000/svg" viewBox="0 0 123.66 151.83">
  <defs>
    <style>
      .cls-1 {
        mix-blend-mode: lighten;
      }

      .cls-2 {
        isolation: isolate;
      }

      .cls-3 {
        fill: aqua;
        stroke-width: 0px;
      }
    </style>
  </defs>
  <g class="cls-2">
    <g id="Layer_2" data-name="Layer 2">
      <g id="Layer_1-2" data-name="Layer 1">
        <g class="cls-1">
          <path class="cls-3" d="m58.52,136.62c-15.3-.52-27.89-7.37-39.34-16.8,2.44-.1,3.27,3.22,5.85,2.83.22-.26.44-.52.65-.79-1.67-1.65-3.17-3.53-5.04-4.9-4.15-3.04-7.87-6.4-10.12-11.13-.07-.14-.16-.31-.28-.39-2.49-1.74-3.34-4.29-3.59-7.74,1.71,2.27,3.05,4.23,4.58,6.03,1.67,1.96,3.48,3.8,5.31,5.61.31.3,1.33.44,1.49.24,1.17-1.48,1.96-.51,2.81.31,7.6,7.35,17.31,10.87,26.79,14.81.35.14.8.02,1.38.02.13-.88.27-1.75.39-2.58.53,1.08,1.08,2.21,1.63,3.34.3-.07.6-.15.9-.22.13-2.57.26-5.14.39-7.87,3.05-.14,5.08.92,5.42,4.44l.82-.36c.13-4.22.31-8.45.28-12.67,0-.38-1.44-.76-2.66-1.35v5.92c-.92.04-1.73-.17-2.18.14-1.98,1.35-2.15.17-2.26-1.41-.13-1.97-.18-3.97-.62-5.87-.19-.82-1.24-1.45-1.91-2.17-.22.82-.58,1.63-.63,2.45-.19,3.53-.28,7.07-.41,10.6-.43.03-.86.06-1.29.09-.33-1.2-.78-2.39-.96-3.61-.45-3.1-.53-6.27-1.25-9.3-.28-1.16-1.78-2.22-2.97-2.93-2.5-1.49-3.08-4.29-.85-5.95.64-.48,1.96-.48,2.8-.2,7.32,2.39,14.73,4.2,22.49,3.71,2.68-.17,5.43-.58,7.96-1.44,3.63-1.23,7.09-2.97,11.06-1.03.37,3.69-.75,5.27-5.28,7.53-.78.39-1.46,1.35-1.79,2.2-.9,2.34-1.66,4.75-2.33,7.17-.28,1-.16,2.11-.24,3.17-.09,1.09-.22,2.18-.83,3.24-.08-1.24-.17-2.48-.25-3.72-.18-.06-.36-.12-.54-.18-.44.97-.88,1.95-1.32,2.92-.51,1.12-.92,2.3-1.59,3.31-.28.42-1.14.65-1.7.61-.27-.02-.66-.9-.66-1.39.02-2.8.09-5.6.25-8.4.13-2.29-.52-4.12-2.85-5.88v18.63c3.94.61,7.81-.17,11.5-1.56,5.97-2.25,11.84-4.75,17.7-7.29,1.39-.6,2.5-1.84,3.81-2.68,1.62-1.04,3.32-1.96,4.95-2.97.55-.34,1.11-.74,1.51-1.24,4.7-5.89,9.74-11.58,12.95-18.48,1.26-2.71,1.84-5.73,2.75-8.6.23-.72.56-1.41.84-2.12.34.03.68.07,1.02.1,0,2.1.34,4.28-.09,6.29-.56,2.62-1.78,5.09-2.6,7.67-.31.96-.27,2.04-.45,3.53,1.11-.52,1.59-.74,2.17-1-.04.3,0,.58-.11.73-2.23,3.08-4.58,6.08-6.7,9.25-1.02,1.53-2.68,2.72-2.37,5.13.15,1.18-.97,2.7-1.86,3.77-.93,1.11-2.51,1.67-3.43,2.78-3.47,4.15-7.79,7.15-12.6,9.43-3.54,1.67-7.24,3.02-10.92,4.35-2.32.84-4.71,1.55-7.12,2.04-2.96.61-5.96.99-8.97,1.34-1.84.22-2.14,1.36-2.33,2.9-.53,4.27-1.2,8.53-1.81,12.79l-.64-.05v-10.08c-.97.69-1.51,1-1.96,1.42-.59.55-1.1,1.17-1.65,1.76-.21-.76-.52-1.5-.62-2.28-.22-1.84-.33-3.7-.52-5.98Z"/>
          <path class="cls-3" d="m61.16,7.21c-1.47-.21-2.49-.31-3.49-.51-1.69-.34-2.17-1.6-1.22-3.04.36-.55.7-1.11,1.05-1.67,1.51-2.41,3.62-2.6,5.75-.7,1.01.9,2.29,1.49,3.5,2.25.62-2.54,2.9-2.22,4.67-1.62,1.92.65,3.98,1.72,4.27,4.22.2,1.71.03,3.49.49,5.11.3,1.07,1.26,2.48,2.21,2.76,7.36,2.16,13.35,6.67,19.4,11.06,4.17,3.03,7.82,7,12.35,9.26,6.4,3.19,8.01,9.13,10.83,14.5-.18.14-.35.27-.53.41-1.21-1.72-2.42-3.43-3.63-5.15l-.18.12c1.87,4.75,3.73,9.49,5.6,14.24-.33.16-.66.32-1,.48-3.65-1.51-3.16-6.09-6.08-7.82-.5-.24-1.16-.35-1.46-.75-2.17-2.79-4.26-5.65-6.4-8.47-.58-.76-1.23-1.47-1.6-2.51.82.66,1.64,1.32,2.8,2.26-1.08-3.72-3.12-6.02-6.19-7.61-1.58-.82-2.98-2.01-4.4-3.1-2.22-1.71-4.25-3.7-6.63-5.14-1.9-1.15-4.19-1.66-6.31-2.45-.11.21-.23.42-.34.64,2.78,1.79,5.55,3.58,8.33,5.36-.11.21-.23.42-.34.62-4.28-1.82-8.56-3.63-12.83-5.46-.6-.26-1.13-.8-1.74-.89-6.1-.88-12.19-1.82-18.32-2.47-2-.21-4.12.2-6.11.67-4.03.95-7.98,2.88-12,3-3.07.09-4.2,2.07-6.1,3.33-2.02,1.34-3.95,2.86-5.81,4.42-2.14,1.81-4.08,3.86-6.26,5.63-3.83,3.1-5.57,7.47-7.34,11.79-1.96,4.8-5.13,7.65-10.45,8.1-3.63.31-6.37-2.19-5.52-5.77.52-2.18,1.39-4.38,2.55-6.3,5.23-8.6,11.75-16.09,20.02-21.89,2.43-1.7,5.34-2.71,8.01-4.07,2.98-1.53,5.92-3.14,8.92-4.64,1.16-.58,2.41-1.07,3.67-1.35,3.34-.74,6.61-1.36,9.36-3.79,1.03-.91,3.11-1.13,4.59-.9,1.91.3,2.67-.57,3.9-2.16Z"/>
          <path class="cls-3" d="m38.57,92.75c-2.75-.24-4.87-.43-6.99-.62-.12.42-.24.85-.35,1.27,1.21.53,2.43,1.06,3.64,1.6-.04.21-.08.43-.12.64-1.43-.39-3.03-.49-4.26-1.22-1.74-1.05-3.24-2.52-4.78-3.87-4.95-4.33-9.88-8.68-14.82-13.02-.19-.16-.35-.36-.55-.5-4.43-3.19-4.31-4.09.27-7.22,2.27-1.55,4.15-3.68,6.31-5.41,3.2-2.56,6.35-5.22,9.79-7.42,5.18-3.3,10.6-6.22,15.89-9.34,1.82-1.07,3.76-.89,5.74-1.08,2.72-.25,5.35-1.51,8.08-1.81,3.51-.38,7.08-.32,10.62-.24.56.01,1.09,1.18,1.63,1.81-.62.53-1.15,1.33-1.86,1.54-6.42,1.86-12.91,3.46-19.29,5.44-7.06,2.19-13.41,5.89-19.2,10.43-3.22,2.53-6.16,5.41-9.22,8.14-1.07.96-1.44,2.03-.32,3.2,4.18,4.41,8.3,8.9,12.62,13.17,1.3,1.29,3.22,1.95,4.84,2.93.68.41,1.32.88,2.35,1.57Z"/>
          <path class="cls-3" d="m107.53,74.87c-7.27-5.83-14.3-11.66-21.56-17.19-2.84-2.17-6.08-3.88-9.32-5.43-1.86-.89-4.07-1.02-6.18-1.5,3.67-4.13,10.26-4.01,15.92-.81,9.69,5.48,17.32,13.54,26.15,20.07,1.32.98,2.7,1.92,3.87,3.05,1.48,1.44,1.4,3.43-.4,4.06-4.87,1.69-6.96,6.4-10.69,9.28-2.84,2.19-5.78,4.25-8.66,6.4-1.76,1.32-3.46,2.73-5.26,3.99-.52.37-1.29.38-1.94.55-.14-.72-.3-1.44-.42-2.16-.02-.14.18-.35.13-.46-1.56-3.65,1.46-4.79,3.48-6.57,3.64-3.2,7.16-6.53,10.76-9.78,1.22-1.11,2.51-2.14,4.12-3.49Z"/>
          <path class="cls-3" d="m63.33,91.94c1.06-1.01,1.77-1.75,2.55-2.4.55-.46,1.17-.97,1.84-1.15,5.45-1.46,8.05-5.79,10.16-10.38,1.83-3.97-.33-10.25-3.98-12.76-3.18-2.19-6.42-4.3-9.9-6.62,3.67-2.8,6.55-.24,9.36.84,1.63.63,2.77,2.45,4.29,3.5,1.37.95,1.47,3.4,3.84,3.17.29-.03.68.64.97,1.03,2.89,3.98,2.74,8.79-.21,13.09-1.73,2.52-3.3,5.17-4.88,7.79-1.54,2.55-10.22,5.91-13.14,4.95-.49-.16-.77-.91-.9-1.07Z"/>
          <path class="cls-3" d="m43.22,74.3c-.3.82-.43,1.19-.62,1.69-.11-.34-.25-.55-.25-.77-.02-1.07-.2-2.2.05-3.21.52-2.13-.32-4.72,3.18-5.71,1.79-.51,2.73-3.51,4.44-4.92,2.92-2.43,6.34-3.99,10.27-4.3-.02,3.92-3.33,4.62-5.69,5.78-3.48,1.71-5.52,4.34-5.96,7.92-1.07,8.67.57,13.85,8.31,17.86.99.51,1.8,1.37,2.92,2.24-.7.39-1.26,1-1.77.95-4.1-.38-8.07-1.78-10.55-4.94-1.92-2.45-2.57-5.92-3.68-8.97-.36-.99-.38-2.1-.64-3.61Z"/>
          <path class="cls-3" d="m62.89,82.62c-5.13.96-9.17-7.33-7.24-11.17.41-.81,1.3-1.44,2.09-1.97,3.5-2.33,7.95-2.24,10.18.23.49.55.7,1.39.93,2.13.32,1.03.53,2.1.81,3.15.1.38.4.75.37,1.1-.19,3.09-4.01,6.55-7.16,6.53Z"/>
          <path class="cls-3" d="m64.5,41c-2.4-1.38-4.56-2.57-6.65-3.89-.36-.23-.58-1.03-.52-1.53.23-1.93.59-3.85.93-5.77.05-.3.18-.63.39-.84.96-.97,7.74-1.72,9.03-1.05.97.5,2.78.88,2.82,1.43.21,2.71.6,5.71-.37,8.09-.64,1.58-3.46,2.28-5.64,3.57Z"/>
          <path class="cls-3" d="m36.74,87.46c-5.04-2.24-11.52-7.27-11.06-13.52.32-4.37,1.97-6.78,5.43-8.63,1.51-.81,3-1.67,5.27-2.94-3.93,8.93-4.56,17.13.36,25.09Z"/>
          <path class="cls-3" d="m93.29,72.79c1.35-4.53-2.2-6.22-3.91-9.06,1.06.78,2.19,1.5,3.18,2.37,2.08,1.82,4.07,3.74,6.13,5.57,2.01,1.79,1.88,4.81-.6,7.4-2.24,2.33-4.67,4.48-7.35,7.03.51-2.84,1.01-5.11,1.29-7.4.29-2.34.37-4.7.55-7.07.09.15.33.54.71,1.17Z"/>
          <path class="cls-3" d="m82.59,36.76c-.03,3.94-.67,4.8-3.98,4.55-3.29-.25-5.2-1.73-5.05-4.43.14-2.68,2.34-4.93,5.09-4.92,2.62.01,3.97,1.66,3.95,4.8Z"/>
          <path class="cls-3" d="m44.84,36.79c.01-2.94,1.15-3.87,4.86-4.28,2.18-.24,4.26,1.17,4.56,3.24.26,1.82,1.01,4.26-1.27,4.93-1.71.5-3.87-.22-5.75-.68-1.7-.42-2.67-1.64-2.39-3.22Z"/>
          <path class="cls-3" d="m69.18,149.5c-.2-3.13-.45-6.25-.54-9.39-.02-.58.67-1.17,1.03-1.76.51.34,1.14.58,1.5,1.04,1.6,2.01,3.07,3.92.19,6.28-.82.67-.66,2.53-.94,3.85-.42,0-.83-.02-1.25-.03Z"/>
          <path class="cls-3" d="m5.77,94.11c-.85-.91-2.58-2.2-2.39-2.65.57-1.31,1.76-2.92,2.99-3.21,1.61-.38,2.86,1.09,2.84,2.93-.02,1.86-1.31,2.48-3.44,2.94Z"/>
          <path class="cls-3" d="m9.12,59.44c-.11,2.73-1.92,3.29-3.34,3.64-.96.24-2.21-.66-3.34-1.05.04-.35.09-.7.13-1.05,2.06-.49,4.12-.97,6.55-1.54Z"/>
          <path class="cls-3" d="m104.76,25.85c-3.03-2.14-6.05-4.27-9.08-6.41,4.12.43,6.96,2.93,9.59,5.75-.17.22-.34.44-.52.66Z"/>
          <path class="cls-3" d="m53.95,141.9c-.78-.91-1.62-1.58-1.51-1.82.38-.86,1.09-1.58,1.67-2.35.62.64,1.65,1.23,1.73,1.92.06.57-1.01,1.27-1.89,2.25Z"/>
          <path class="cls-3" d="m51.02,7.33c-.86-.85-1.36-1.33-1.85-1.82.59-.52,1.14-1.36,1.79-1.45.53-.07,1.19.77,1.78,1.2-.48.58-.97,1.16-1.73,2.07Z"/>
          <path class="cls-3" d="m120.7,62.01c1.51.34,2.85.4,2.91.71.19.95-.12,1.99-.23,3-.3.03-.6.06-.9.09-.48-1.01-.95-2.03-1.78-3.79Z"/>
        </g>
      </g>
    </g>
  </g>
</svg>