<?xml version="1.0" encoding="UTF-8"?>
<svg xmlns="http://www.w3.org/2000/svg" viewBox="0 0 98.77 74.79">
  <defs>
    <style>
      .cls-1 {
        mix-blend-mode: lighten;
      }

      .cls-2 {
        isolation: isolate;
      }

      .cls-3 {
        fill: aqua;
        stroke-width: 0px;
      }
    </style>
  </defs>
  <g class="cls-2">
    <g id="Layer_2" data-name="Layer 2">
      <g id="Layer_1-2" data-name="Layer 1">
        <g class="cls-1">
          <path class="cls-3" d="m75.26,71.28c.58-.58,1.15-1.15,1.73-1.73.75-.03,1.49-.06,2.24-.09,1.42-.56,3.23-3.23,4.33-4.33,2.77-2.77,6.33-5.49,8.64-8.64,1.08-1.48.87-2.28,1.73-3.79.51-.59,1.01-1.18,1.52-1.76-.19-.64-.15-1.25.14-1.85.77-1.41,1.65-1.8,2-3.31.3-1.31.48-2.76.78-4.09.37-1.61.34-3.04.33-4.7,0-.69,0-1.37,0-2.06.25-.95-.09-1.65-1.03-2.11-1.06-.57-1.43-1.43-1.11-2.6-.02-1.02-.05-2.03-.07-3.05-.89-.41-1.23-1.04-1.03-1.9.29-.92.02-1.6-.81-2.06-1.95-2.97-6.2-4.73-7.85-7.85-.58-1.11.12-2.01-.96-3.19-.92-1-1.84-1.39-3.2-.95-.16-1.65-.14-2.63-1.57-3.67-1.14-.83-1.65-.37-2.93-.88-1.28-.51-1.9-2.66-3.17-3.17-.77-.03-1.54-.06-2.32-.09l-1.74-1.74c-1.84-1.16-4.62-1.5-6.76-1.62-.66-.02-1.31-.04-1.97-.06-.42.37-.84.74-1.25,1.11-.98.09-1.96-.51-3.16-.47-.85.03-1.77.65-2.65.72-1.69.14-2.11-1.03-3.42-1.11-1.2-.07-1.5,1.19-2.38,1.66-1.06.56-1.5.4-2.66.66-1.31.29-2.86.91-3.91,1.67l-1.37,1.37c-.75.03-1.5.05-2.25.08-.99.43-1.68,1.56-2.77,2.04-1.25.56-2.68.67-3.94,1.21-1.34.57-2.09,1.31-3.21,2.16-.21.34-.42.69-.63,1.03h-1.61c-2.66,1.17-4.51,4.34-6.87,6.24-1.34,1.08-3.83.96-4.66,2.41-.03.73-.06,1.47-.1,2.2-.71.71-1.41,1.41-2.12,2.12-.51.5-1.87,2.35-2.49,2.2-3.04-.73,1.77-7.77,2.38-9.02,1.05-2.14,1.49-5.21,2.29-7.5.91-2.63,1-4.49.92-7.37-1.91.11-4.39-.15-5.95.82-1.18.73-1.05,1.37-1.47,2.42.22.74.03,1.3-.57,1.67l-1.58,1.58c-.02.38-.03.77-.05,1.15.22.87-.06,1.52-.86,1.94-.56,1.03-1.19,1.72-1.59,2.96-.61,1.91-.38,4.72-1.23,6.2-.59,1.03-1.38,1.29-1.67,2.54-.18.78.12,1.59,0,2.36-.11.66-.35,1.16-.51,1.77-.79.46-1,1.16-.62,2.11,0,.51.01,1.01.02,1.52.03,2.9-.07,6.42,3.23,7.8,1.64.69,5.48.16,7.3.02,4.35-.33,8.41-2.32,12.59-3.2,1.72-.36,3.16-.07,4.86-.57,1.94-.56,3.88-.69,5.83-1.26,2.03-.6,4.62-1.74,4.05-4.34-.32-1.47-.38-1.29-2.01-1.8-.96-.3-1.97-.57-2.97-.67-2.28-.23-3.8.61-5.91,1.12-1.9.45-3.77-.06-5.33,1.47,0-1.92,2.47-5.14,4.35-5.87.65-.25,1.57.17,2.21-.09.99-.39,2.4-2.4,3.16-3.16,1.8-1.8,2.9-2.81,5.32-3.55,2.36-.72,4.34-1.94,6.62-2.81,1.67-.64,2.63-1.73,4.14-2.31,1.64-.63,3.48-1.09,5.15-1.72,1.58-.6,3.26-.28,4.89-.59,1.73-.32,3.72-.84,5.77-.8,1.58.03,3.04.19,4.54.82,2.41,1.02,3.81,2.64,5.7,4.52,3.85,3.85,8.35,7.53,11.77,11.77,1.64,2.03,1.89,3.79,2.29,6.35.27,1.71,1.08,3.2,1.25,4.92.13,1.33.47,4.76-.02,6.09-.48,1.31-2.81,1.95-3.27,3.27,0,.64,0,1.27,0,1.91l-1.28,1.28c-.6.81-1.58,1.34-2.16,2.16-.48.67-.57,2.17-.96,2.62-.63.71-.47.18-1.32.69-.94.57-1.76,1.06-2.67,1.89-1.54,1.4-2.96,3.63-4.8,4.56-.44.22-1.16-.14-1.73.08-.91.35-1.39,1.4-2.24,1.87-.9.49-3.21,1.23-4.22,1.38-1.79.26-2.86-.81-4.51-1.07-2.24-.35-2.37.53-4.36-1.1-2.81-2.3-2.19-4.36-2.2-7.78,0-.99-.42-3.34-.02-4.22.26-.58,1.1-.92,1.46-1.46.84-1.26.18-1.32.7-2.66.31-.81,1.99-1.99,2.61-2.61,1.76-1.76,1.34-3.03,2.61-4.89,1.52-2.24,4.15-3.09,4.53-5.77.46-3.25-2.65-2.22-4.3-.96-.79.6-1.34,1.57-2.15,2.15l-1.07,1.07c-.74.03-1.48.06-2.23.08-1.43.81-1.07,2.67-1.88,3.96-.68,1.09-1.96,2-2.86,2.89-.68.64-1.33,1.3-1.96,1.98-.9.51-1.13,1.18-.7,2.02-.67,1.52-1.82,2.68-2.45,4.23-.87,2.13-.96,4.66-.94,6.9.04,5.18,1.01,10.17,5.93,13.14,1.17.7,3.87,1.5,5.45,1.67.92.1,1.91-.19,2.85-.09.58.02,1.15.04,1.73.04.4.32.81.63,1.21.95,1.57.05,4.43-.7,6.05-1.12,2.5-.65,4.98-1.59,7.45-2.38.65-.65-1.88.6,0,0Z"/>
        </g>
      </g>
    </g>
  </g>
</svg>